HIERARCHY
ROOT Hip
{
	OFFSET 0 1.131 0.0052
	CHANNELS 6 Xposition Yposition Zposition Xrotation Yrotation Zrotation
	JOINT Abdomen
	{
		OFFSET 0 -0.047353 -0.05
		CHANNELS 3 Xrotation Zrotation Yrotation
		JOINT Chest
		{
			OFFSET 0 0.132153 0.007439
			CHANNELS 3 Xrotation Zrotation Yrotation
			JOINT Neck
			{
				OFFSET 0 0.3078 0.006161
				CHANNELS 3 Xrotation Zrotation Yrotation
				JOINT Head_comp
				{
					OFFSET 0 0.0884 0.013
					CHANNELS 3 Xrotation Yrotation Zrotation
					End Site
					{
						OFFSET -0 0.156 0.0624
					}
				}
			}
			JOINT Left_Collar
			{
				OFFSET 0.02282 0.250342 0.017193
				CHANNELS 2 Yrotation Zrotation
				JOINT Left_Shoulder
				{
					OFFSET 0.15421 0 0
					CHANNELS 3 Xrotation Yrotation Zrotation
					JOINT Left_Forearm
					{
						OFFSET 0.265212 0 0
						CHANNELS 2 Yrotation Xrotation
						JOINT Left_Hand
						{
							OFFSET 0.27571 0 0
							CHANNELS 2 Zrotation Yrotation
							JOINT L1ProxPhalanx
							{
								OFFSET 0.014142 0.001733 0.014142
								CHANNELS 3 Yrotation Zrotation Xrotation
								JOINT L1MidPhalanx
								{
									OFFSET 0.04 0 0
									CHANNELS 1 Zrotation
									JOINT L1DistPhalanx
									{
										OFFSET 0.035 0 0
										CHANNELS 1 Zrotation
										End Site
										{
											OFFSET 0.029 -0 -0
										}
									}
								}
							}
							JOINT L2ProxPhalanx
							{
								OFFSET 0.0821037 0.001578 0.0219996
								CHANNELS 2 Yrotation Zrotation
								JOINT L2MidPhalanx
								{
									OFFSET 0.04 0 0
									CHANNELS 1 Zrotation
									JOINT L2DistPhalanx
									{
										OFFSET 0.028 0 0
										CHANNELS 1 Zrotation
										End Site
										{
											OFFSET 0.02 -0 -0
										}
									}
								}
							}
							JOINT L3ProxPhalanx
							{
								OFFSET 0.083 0 0
								CHANNELS 2 Yrotation Zrotation
								JOINT L3MidPhalanx
								{
									OFFSET 0.053 0 0
									CHANNELS 1 Zrotation
									JOINT L3DistPhalanx
									{
										OFFSET 0.03 0 0
										CHANNELS 1 Zrotation
										End Site
										{
											OFFSET 0.023 -0 -0
										}
									}
								}
							}
							JOINT L4ProxPhalanx
							{
								OFFSET 0.077274 -0.000761 -0.0207055
								CHANNELS 2 Yrotation Zrotation
								JOINT L4MidPhalanx
								{
									OFFSET 0.05 0 0
									CHANNELS 1 Zrotation
									JOINT L4DistPhalanx
									{
										OFFSET 0.03 0 0
										CHANNELS 1 Zrotation
										End Site
										{
											OFFSET 0.023 -0 -0
										}
									}
								}
							}
							JOINT L5ProxPhalanx
							{
								OFFSET 0.0675499 -0.001644 -0.039
								CHANNELS 2 Yrotation Zrotation
								JOINT L5MidPhalanx
								{
									OFFSET 0.04 0 0
									CHANNELS 1 Zrotation
									JOINT L5DistPhalanx
									{
										OFFSET 0.021 0 0
										CHANNELS 1 Zrotation
										End Site
										{
											OFFSET 0.022 -0 -0
										}
									}
								}
							}
						}
					}
				}
			}
			JOINT Right_Collar
			{
				OFFSET -0.02282 0.250342 0.017193
				CHANNELS 2 Yrotation Zrotation
				JOINT Right_Shoulder
				{
					OFFSET -0.15421 0 0
					CHANNELS 3 Xrotation Yrotation Zrotation
					JOINT Right_Forearm
					{
						OFFSET -0.265212 0 0
						CHANNELS 2 Yrotation Xrotation
						JOINT Right_Hand
						{
							OFFSET -0.27571 3e-006 0
							CHANNELS 2 Zrotation Yrotation
							JOINT R1ProxPhalanx
							{
								OFFSET -0.014142 0.001733 0.014142
								CHANNELS 3 Yrotation Zrotation Xrotation
								JOINT R1MidPhalanx
								{
									OFFSET -0.04 0 0
									CHANNELS 1 Zrotation
									JOINT R1DistPhalanx
									{
										OFFSET -0.035 0 0
										CHANNELS 1 Zrotation
										End Site
										{
											OFFSET -0.029 -0 -0
										}
									}
								}
							}
							JOINT R2ProxPhalanx
							{
								OFFSET -0.0821037 0.001578 0.0219996
								CHANNELS 2 Yrotation Zrotation
								JOINT R2MidPhalanx
								{
									OFFSET -0.04 0 0
									CHANNELS 1 Zrotation
									JOINT R2DistPhalanx
									{
										OFFSET -0.028 0 0
										CHANNELS 1 Zrotation
										End Site
										{
											OFFSET -0.02 -0 -0
										}
									}
								}
							}
							JOINT R3ProxPhalanx
							{
								OFFSET -0.083 0 0
								CHANNELS 2 Yrotation Zrotation
								JOINT R3MidPhalanx
								{
									OFFSET -0.053 0 0
									CHANNELS 1 Zrotation
									JOINT R3DistPhalanx
									{
										OFFSET -0.03 0 0
										CHANNELS 1 Zrotation
										End Site
										{
											OFFSET -0.023 -0 -0
										}
									}
								}
							}
							JOINT R4ProxPhalanx
							{
								OFFSET -0.077274 -0.000761 -0.0207055
								CHANNELS 2 Yrotation Zrotation
								JOINT R4MidPhalanx
								{
									OFFSET -0.05 0 0
									CHANNELS 1 Zrotation
									JOINT R4DistPhalanx
									{
										OFFSET -0.03 0 0
										CHANNELS 1 Zrotation
										End Site
										{
											OFFSET -0.023 -0 -0
										}
									}
								}
							}
							JOINT R5ProxPhalanx
							{
								OFFSET -0.0675499 -0.001644 -0.039
								CHANNELS 2 Yrotation Zrotation
								JOINT R5MidPhalanx
								{
									OFFSET -0.04 0 0
									CHANNELS 1 Zrotation
									JOINT R5DistPhalanx
									{
										OFFSET -0.021 0 0
										CHANNELS 1 Zrotation
										End Site
										{
											OFFSET -0.022 -0 -0
										}
									}
								}
							}
						}
					}
				}
			}
		}
	}
	JOINT Left_Thigh
	{
		OFFSET 0.1118 -0.1612 -0.0442
		CHANNELS 3 Xrotation Zrotation Yrotation
		JOINT Left_Shin
		{
			OFFSET 0 -0.477856 0
			CHANNELS 1 Xrotation
			JOINT Left_Foot
			{
				OFFSET 0 -0.431952 0
				CHANNELS 2 Xrotation Zrotation
				JOINT Left_Toe
				{
					OFFSET 0 -0.0442 0.119
					CHANNELS 1 Xrotation
					End Site
					{
						OFFSET -0 -0 0.07
					}
				}
			}
		}
	}
	JOINT Right_Thigh
	{
		OFFSET -0.1118 -0.1612 -0.0442
		CHANNELS 3 Xrotation Zrotation Yrotation
		JOINT Right_Shin
		{
			OFFSET 0 -0.477856 0
			CHANNELS 1 Xrotation
			JOINT Right_Foot
			{
				OFFSET 0 -0.431952 0
				CHANNELS 2 Xrotation Zrotation
				JOINT Right_Toe
				{
					OFFSET 0 -0.0442 0.119
					CHANNELS 1 Xrotation
					End Site
					{
						OFFSET -0 -0 0.07
					}
				}
			}
		}
	}
}
MOTION
Frames: 10
Frame Time: 0.009975
-0.0972162 -0.0601775 0.0501722 -1.32031e-013 6.26829e-008 -5.10959e-006 0 -0 0 0 -0 0 0 -0 0 -0.7131 0.279373 1.23693e-012 0.0133289 -3.92842 30.6057 -11.2077 -67.3643 -82.7369 0.0106483 0.0242587 0.00147142 -37.9386 -28.008 73.698 -26.2405 -28.4472 -13.118 -18.2167 -29.0248 -19.6359 0 -22.4358 -32.6146 -28.1246 8.63175 -30.7051 -32.2053 -23.7634 7.83088 -26.7354 -35.1526 -30.0193 -0.0642459 23.0176 -14.5769 24.8351 26.3516 46.3516 11.1386 -13.3247 -0.718529 4.4616 56.9572 155.451 19.2764 29.4584 -13.5656 33.215 0.240575 1.74488 -13.728 53.1881 49.5584 57.8184 -33.2246 34.0632 82.3473 44.8039 -51.5091 -0.296628 155.892 -106.481 0.692279 -0.918463 -0.0110975 0.0240216 -0.716212 0.918535 0 0.703686 -0.91846 -0.0112803 8.58043e-007 -0.703596 0.918535 0 
-0.0971658 -0.0601787 0.0502038 -2.95441e-013 6.29348e-008 -5.1096e-006 0 -0 0 0 -0 0 0 -0 0 -0.713105 0.279233 1.93701e-012 0.0133289 -3.92842 30.6057 -11.2077 -67.3643 -82.7369 0.0106483 0.0242587 0.00147142 -37.9386 -28.008 73.698 -26.2405 -28.4472 -13.118 -18.2167 -29.0248 -19.6359 0 -22.4358 -32.6146 -28.1246 8.63175 -30.7051 -32.2053 -23.7634 7.83088 -26.7354 -35.1526 -30.0193 -0.0995915 22.983 -14.7925 24.642 26.3778 46.2462 11.0233 -13.3632 -0.645998 4.41376 56.9905 154.563 19.2697 29.4782 -13.5623 33.1991 0.312585 1.74619 -13.8681 53.2618 49.3241 58.0841 -33.178 34.3373 81.8401 45.2576 -51.6575 -0.280863 155.419 -105.892 0.694269 -0.921638 -0.0111679 0.0240216 -0.7182 0.92171 0 0.705675 -0.921635 -0.0113513 0 -0.705584 0.92171 0 
-0.0971092 -0.0601801 0.0502432 -6.35474e-013 6.31562e-008 -5.1096e-006 0 -0 0 0 -0 0 0 -0 0 -0.713112 0.279076 2.53436e-012 0.0133289 -3.92842 30.6057 -11.2077 -67.3643 -82.7369 0.0106483 0.0242587 0.00147142 -37.9386 -28.008 73.698 -26.2405 -28.4472 -13.118 -18.2167 -29.0248 -19.6359 0 -22.4358 -32.6146 -28.1246 8.63175 -30.7051 -32.2053 -23.7634 7.83088 -26.7354 -35.1526 -30.0193 -0.150787 22.9329 -15.0281 24.4279 26.4164 46.1628 10.904 -13.4278 -0.53993 4.44465 56.9273 153.649 19.2389 29.5692 -13.5882 33.1898 0.399211 1.66498 -13.9664 53.4906 48.9853 58.4047 -33.3622 34.3955 81.4044 45.5466 -51.8932 -0.264117 154.816 -105.579 0.696751 -0.925202 -0.0112512 0.0240216 -0.720681 0.925276 0 0.708156 -0.9252 -0.0114353 1.39459e-006 -0.708065 0.925276 0 
-0.0970539 -0.0601815 0.0502856 1.57625e-013 6.32768e-008 -5.1096e-006 0 -0 0 0 -0 0 0 -0 0 -0.713119 0.27892 2.18672e-012 0.0133289 -3.92842 30.6057 -11.2077 -67.3643 -82.7369 0.0106483 0.0242587 0.00147142 -37.9386 -28.008 73.698 -26.2405 -28.4472 -13.118 -18.2167 -29.0248 -19.6359 0 -22.4358 -32.6146 -28.1246 8.63175 -30.7051 -32.2053 -23.7634 7.83088 -26.7354 -35.1526 -30.0193 -0.206712 22.8983 -15.2646 24.207 26.4475 46.0879 10.7806 -13.5054 -0.437386 4.50735 56.8408 152.713 19.208 29.6074 -13.6213 33.2104 0.398753 1.55679 -14.1075 53.7382 48.6336 58.7223 -33.6084 34.4661 80.8798 46.0417 -52.2459 -0.244839 154.255 -105.584 0.699424 -0.928682 -0.0113368 0.0240216 -0.723353 0.928756 0 0.710829 -0.928679 -0.0115216 1.44414e-006 -0.710737 0.928756 0 
-0.0969997 -0.0601829 0.050328 8.4886e-013 6.35173e-008 -5.1096e-006 0 -0 0 0 -0 0 0 -0 0 -0.713126 0.27877 2.32991e-012 0.0133289 -3.92842 30.6057 -11.2077 -67.3643 -82.7369 0.0106483 0.0242587 0.00147142 -37.9386 -28.008 73.698 -26.2405 -28.4472 -13.118 -18.2167 -29.0248 -19.6359 0 -22.4358 -32.6146 -28.1246 8.63175 -30.7051 -32.2053 -23.7634 7.83088 -26.7354 -35.1526 -30.0193 -0.256806 22.8745 -15.516 23.9686 26.4767 46.021 10.6679 -13.5805 -0.399742 4.4783 56.8002 151.86 19.1724 29.4976 -13.6225 33.181 0.397987 1.83552 -14.2866 53.8558 48.3599 59.062 -33.6421 34.8126 80.1398 46.8844 -52.4093 -0.236374 153.91 -105.426 0.702093 -0.932095 -0.0114219 0.0240216 -0.726022 0.932171 0 0.713499 -0.932093 -0.0116074 0 -0.713405 0.93217 0 
-0.0969417 -0.0601845 0.0503747 1.86222e-013 6.37541e-008 -5.1096e-006 0 -0 0 0 -0 0 0 -0 0 -0.713133 0.278611 2.953e-012 0.0133289 -3.92842 30.6057 -11.2077 -67.3643 -82.7369 0.0106483 0.0242587 0.00147142 -37.9386 -28.008 73.698 -26.2405 -28.4472 -13.118 -18.2167 -29.0248 -19.6359 0 -22.4358 -32.6146 -28.1246 8.63175 -30.7051 -32.2053 -23.7634 7.83088 -26.7354 -35.1526 -30.0193 -0.317416 22.8515 -15.8072 23.7162 26.522 45.9309 10.5884 -13.7127 -0.325905 4.37789 56.7833 150.785 19.2225 29.0076 -13.7081 33.1624 0.477867 2.12238 -14.4541 54.0244 48.0062 59.4245 -33.656 35.1724 79.42 47.6623 -52.6357 -0.222874 153.66 -105.39 0.705039 -0.935751 -0.0115148 0.0240216 -0.728967 0.935827 0 0.716446 -0.935749 -0.0117011 8.2816e-007 -0.716351 0.935827 0 
-0.0968818 -0.0601861 0.0504239 -1.22906e-012 6.40457e-008 -5.10961e-006 0 -0 0 0 -0 0 0 -0 0 -0.713141 0.278444 2.88814e-012 0.0133289 -3.92842 30.6057 -11.2077 -67.3643 -82.7369 0.0106483 0.0242587 0.00147142 -37.9386 -28.008 73.698 -26.2405 -28.4472 -13.118 -18.2167 -29.0248 -19.6359 0 -22.4358 -32.6146 -28.1246 8.63175 -30.7051 -32.2053 -23.7634 7.83088 -26.7354 -35.1526 -30.0193 -0.385914 22.8332 -16.0973 23.4712 26.5535 45.8352 10.5039 -13.846 -0.276566 4.45112 56.622 149.532 19.2577 28.4312 -13.8263 33.1642 0.506288 2.09309 -14.6652 54.1811 47.4461 59.7821 -33.7985 35.4342 78.5462 48.6416 -52.8892 -0.210982 154.03 -105.851 0.708139 -0.939525 -0.0116121 0.0240216 -0.732066 0.939602 0 0.719546 -0.939523 -0.0117991 1.70755e-006 -0.719451 0.939602 0 
-0.0968214 -0.0601876 0.0504686 -3.3442e-013 6.43076e-008 -5.10961e-006 0 -0 0 0 -0 0 0 -0 0 -0.713149 0.278281 2.37233e-012 0.0133289 -3.92842 30.6057 -11.2077 -67.3643 -82.7369 0.0106483 0.0242587 0.00147142 -37.9386 -28.008 73.698 -26.2405 -28.4472 -13.118 -18.2167 -29.0248 -19.6359 0 -22.4358 -32.6146 -28.1246 8.63175 -30.7051 -32.2053 -23.7634 7.83088 -26.7354 -35.1526 -30.0193 -0.435608 22.8194 -16.3385 23.2385 26.5328 45.7295 10.4231 -13.9631 -0.221746 4.41848 56.5248 148.748 19.1667 28.3497 -13.9698 33.1854 0.487092 2.15685 -14.9254 54.2821 46.9105 60.1943 -34.0536 35.603 77.6236 49.749 -53.4564 -0.189264 154.066 -106.66 0.710955 -0.943325 -0.0117054 0.0240216 -0.73488 0.943403 0 0.722361 -0.943323 -0.0118932 2.41484e-006 -0.722265 0.943403 0 
-0.0967611 -0.0601892 0.0505144 6.48481e-013 6.45485e-008 -5.10961e-006 0 -0 0 0 -0 0 0 -0 0 -0.713156 0.278114 3.34837e-012 0.0133289 -3.92842 30.6057 -11.2077 -67.3643 -82.7369 0.0106483 0.0242587 0.00147142 -37.9386 -28.008 73.698 -26.2405 -28.4472 -13.118 -18.2167 -29.0248 -19.6359 0 -22.4358 -32.6146 -28.1246 8.63175 -30.7051 -32.2053 -23.7634 7.83088 -26.7354 -35.1526 -30.0193 -0.487166 22.8209 -16.6017 23.0062 26.5157 45.5774 10.3931 -14.1163 -0.132904 4.0222 56.743 148.553 19.0464 28.6048 -14.1248 33.2503 0.527427 2.38528 -15.2065 54.3141 46.5361 60.5561 -34.215 35.8263 76.7175 50.8433 -54.0846 -0.161802 153.203 -107.164 0.713838 -0.947127 -0.0118003 0.0240216 -0.737762 0.947206 0 0.725244 -0.947125 -0.0119888 1.70755e-006 -0.725147 0.947206 0 
-0.0967031 -0.0601907 0.0505591 -1.39486e-012 6.48248e-008 -5.10961e-006 0 -0 0 0 -0 0 0 -0 0 -0.713164 0.277946 2.28671e-012 0.0133289 -3.92842 30.6057 -11.2077 -67.3643 -82.7369 0.0106483 0.0242587 0.00147142 -37.9386 -28.008 73.698 -26.2405 -28.4472 -13.118 -18.2167 -29.0248 -19.6359 0 -22.4358 -32.6146 -28.1246 8.63175 -30.7051 -32.2053 -23.7634 7.83088 -26.7354 -35.1526 -30.0193 -0.537251 22.8327 -16.8654 22.783 26.4997 45.405 10.3698 -14.2428 -0.0989255 3.65999 57.0092 148.474 18.9275 29.0069 -14.24 33.3069 0.535962 2.51235 -15.3969 54.4387 46.0884 60.9659 -34.3224 36.1183 75.7961 51.881 -54.2932 -0.155436 152.737 -107.413 0.716655 -0.950779 -0.0118925 0.0240216 -0.740578 0.950858 0 0.728061 -0.950777 -0.0120818 2.41484e-006 -0.727963 0.950858 0 
